<?xml version="1.0" encoding="utf-8"?>
<!-- Generator: Adobe Illustrator 16.0.0, SVG Export Plug-In . SVG Version: 6.00 Build 0)  -->
<!DOCTYPE svg PUBLIC "-//W3C//DTD SVG 1.1//EN" "http://www.w3.org/Graphics/SVG/1.1/DTD/svg11.dtd">
<svg version="1.1" id="Layer_1" xmlns="http://www.w3.org/2000/svg" xmlns:xlink="http://www.w3.org/1999/xlink" x="0px" y="0px"
	 width="707.527px" height="484.384px" viewBox="0 0 707.527 484.384" enable-background="new 0 0 707.527 484.384"
	 xml:space="preserve">
<g>
	<path fill="none" stroke="#7AC143" stroke-width="2.32" stroke-linejoin="round" d="M190.326,189.536l308.686,0.038l0.012,140.4
		L640.75,471.7 M271.363,185.835l223.938,0.038v10.319l0.012,272.106 M44.49,193.245l447.098,0.035l0.012,121.613"/>
	<path fill="none" stroke="#1F378C" stroke-width="2.32" stroke-linejoin="round" d="M562.57,206.179l-171.818,0.001l-21.887-21.887
		L202.241,17.668 M562.387,209.885h-173.18l-88.714-88.713"/>
	<polyline fill="none" stroke="#1F378C" stroke-width="2.32" points="301.783,121.055 236.569,121.055 133.541,18.027 	"/>
	<path fill="none" stroke="#F15D22" stroke-width="2.32" stroke-linejoin="round" d="M487.867,168.969l0.008,109.493l-248.438-0.004
		L52.266,465.631 M484.154,52.295l0.01,229.884l-177.297-0.003L121.6,467.444"/>
	<line fill="none" stroke="#F15D22" stroke-width="2.32" x1="488.572" y1="168.483" x2="550.457" y2="106.6"/>
	<path fill="#1F378C" d="M563.127,198.296c0-0.723,0.594-1.315,1.316-1.315h14.352c0.723,0,1.314,0.592,1.314,1.315v7.021
		c0,0.723-0.592,1.315-1.314,1.315h-14.352c-0.723,0-1.316-0.592-1.316-1.315V198.296z"/>
	<path fill="#1F378C" d="M563.127,209.808c0-0.723,0.594-1.315,1.316-1.315h14.352c0.723,0,1.314,0.592,1.314,1.315v7.021
		c0,0.723-0.592,1.315-1.314,1.315h-14.352c-0.723,0-1.316-0.592-1.316-1.315V209.808z"/>
	<path fill="#7AC143" d="M26.706,189.409c0-0.723,0.592-1.315,1.315-1.315h14.352c0.723,0,1.315,0.592,1.315,1.315v7.021
		c0,0.723-0.592,1.315-1.315,1.315H28.021c-0.723,0-1.315-0.592-1.315-1.315V189.409z"/>
	<path fill="#FFFFFF" d="M373.354,194.145c0-0.675,0.002-10.3,0.002-10.972c0-1.093-0.885-1.974-1.973-1.974
		c-1.092,0-1.973,0.881-1.975,1.972v10.974c0,1.09,0.885,1.972,1.975,1.972C372.471,196.117,373.354,195.235,373.354,194.145"/>
	<path fill="none" stroke="#000000" stroke-width="0.6957" d="M373.354,194.145c0-0.675,0.002-10.3,0.002-10.972
		c0-1.092-0.885-1.974-1.973-1.974c-1.092,0-1.973,0.881-1.975,1.972v10.974c0,1.09,0.885,1.972,1.975,1.972
		C372.471,196.117,373.354,195.235,373.354,194.145L373.354,194.145z"/>
	<path fill="#FFFFFF" d="M483.781,171.461h6.002c1.09,0,1.973-0.882,1.973-1.971c0-1.09-0.883-1.974-1.973-1.974h-6.002
		c-1.088,0-1.971,0.884-1.971,1.974C481.811,170.579,482.693,171.461,483.781,171.461"/>
	<path fill="none" stroke="#F15D22" stroke-width="0.928" d="M483.781,171.461h6.002c1.09,0,1.973-0.882,1.973-1.971
		c0-1.09-0.883-1.974-1.973-1.974h-6.002c-1.088,0-1.971,0.884-1.971,1.974C481.811,170.579,482.693,171.461,483.781,171.461
		L483.781,171.461z"/>
	<path fill="#FFFFFF" d="M495.029,333.421h6.002c1.09,0,1.973-0.887,1.973-1.975c0-1.09-0.883-1.972-1.973-1.972h-6.002
		c-1.09,0-1.973,0.882-1.973,1.972C493.057,332.534,493.939,333.421,495.029,333.421"/>
	<path fill="none" stroke="#7AC143" stroke-width="0.6957" d="M495.029,333.421h6.002c1.09,0,1.973-0.887,1.973-1.975
		c0-1.09-0.883-1.972-1.973-1.972h-6.002c-1.09,0-1.973,0.882-1.973,1.972C493.057,332.534,493.939,333.421,495.029,333.421
		L495.029,333.421z"/>
	<path fill="#FFFFFF" d="M298.208,122.877h10.07c1.092,0,1.974-0.884,1.974-1.973c0-1.09-0.882-1.974-1.974-1.974h-10.07
		c-1.088,0-1.972,0.884-1.972,1.974C296.237,121.994,297.121,122.877,298.208,122.877"/>
	<path fill="none" stroke="#1F378C" stroke-width="0.6957" d="M298.208,122.877h10.07c1.092,0,1.974-0.884,1.974-1.973
		c0-1.09-0.882-1.974-1.974-1.974h-10.07c-1.088,0-1.972,0.884-1.972,1.974C296.237,121.994,297.121,122.877,298.208,122.877
		L298.208,122.877z"/>
	<path fill="none" stroke="#E1F4FD" stroke-width="0.928" d="M487.947,295.265h14.719 M490.248,280.756h13.035 M482.561,52.322
		h7.012 M543.533,109.142h8.805 M505.398,148.325h8.805 M480.766,136.499h8.807 M482.688,96.386h6.885 M482.688,115.365h6.885
		 M482.816,78.531h6.756 M482.432,65.061h7.141 M525.262,128.462h8.805 M199.947,19.615h8.803 M129.37,19.098h8.804
		 M285.595,103.808h8.804 M323.869,147.53h13.622 M222.005,111.88h8.804 M212.133,100.78h8.494 M185.076,75.155h8.802
		 M194.704,84.086h8.804 M175.515,65.59h8.804 M157.434,46.939h8.805 M141.946,31.481h8.804 M119.88,465.245h9.811 M264.577,321.332
		h9.846 M226.526,357.31h9.81 M190.902,393.288h9.81 M155.662,429.266h9.811 M188.889,324.918h9.811 M64.635,448.661h9.811
		 M46.083,465.116h14.741 M82.189,431.351h9.812 M99.588,413.041h9.811 M117.439,395.589h9.812 M135.106,378.276h9.811
		 M170.357,342.656h9.812 M153.613,360.395h9.811 M522.312,356.139h9.811 M543.355,380.711h9.811 M573.332,410.618h9.809
		 M600.607,437.859h9.811 M493.398,449.584h5.252 M493.398,434.01h5.252 M493.398,418.435h5.252 M493.398,402.86h5.252
		 M493.398,387.286h5.252 M493.398,371.712h5.252 M401.449,201.515v12.499 M424.166,182.46v12.499 M442.596,182.46v12.499
		 M62.317,189.959v5.227 M80.601,189.959v5.227 M98.885,189.959v5.227 M117.168,189.959v5.227 M135.452,189.959v5.227
		 M153.736,189.959v5.227 M172.019,189.959v5.227 M190.303,186.901v8.285 M208.586,186.449v8.737 M248.866,186.449v8.737
		 M294.552,181.621v13.565 M385.926,182.315v12.871 M44.21,190.072v5.226 M311.82,182.315v12.871 M404.908,182.46v12.499"/>
	<path fill="#1F378C" d="M195.35,10.824c0-0.723,0.592-1.315,1.315-1.315h14.351c0.723,0,1.315,0.592,1.315,1.315v7.021
		c0,0.724-0.592,1.315-1.315,1.315h-14.351c-0.723,0-1.315-0.591-1.315-1.315V10.824z"/>
	<path fill="#1F378C" d="M126.258,10.36c0-0.724,0.592-1.315,1.315-1.315h14.352c0.723,0,1.315,0.592,1.315,1.315v7.021
		c0,0.724-0.592,1.315-1.315,1.315h-14.352c-0.723,0-1.315-0.591-1.315-1.315V10.36z"/>
	<path fill="#7AC143" d="M172.854,182.332c0-0.723,0.592-1.315,1.315-1.315h14.352c0.723,0,1.315,0.592,1.315,1.315v7.021
		c0,0.723-0.592,1.315-1.315,1.315h-14.352c-0.723,0-1.315-0.592-1.315-1.315V182.332z"/>
	<line fill="#FFFFFF" stroke="#E1F4FD" stroke-width="0.928" x1="562.615" y1="196.867" x2="562.615" y2="218.119"/>
	<path fill="#F15D22" d="M483.094,43.497c0-0.723,0.592-1.315,1.314-1.315h14.352c0.723,0,1.314,0.592,1.314,1.315v7.021
		c0,0.724-0.592,1.315-1.314,1.315h-14.352c-0.723,0-1.314-0.591-1.314-1.315V43.497z"/>
	<path fill="#F15D22" d="M539.594,100.329c0-0.724,0.592-1.315,1.316-1.315h14.352c0.723,0,1.314,0.592,1.314,1.315v7.021
		c0,0.723-0.592,1.315-1.314,1.315H540.91c-0.725,0-1.316-0.592-1.316-1.315V100.329z"/>
	<path fill="#7AC143" d="M331.958,466.87c0-0.724,0.592-1.315,1.315-1.315h14.352c0.723,0,1.315,0.592,1.315,1.315v7.021
		c0,0.724-0.593,1.314-1.315,1.314h-14.352c-0.723,0-1.315-0.591-1.315-1.314V466.87z"/>
	<line fill="none" stroke="#E1F4FD" stroke-width="0.928" x1="630.592" y1="465.101" x2="638.121" y2="465.101"/>
	<path fill="#7AC143" d="M625.9,466.89c0-0.723,0.592-1.315,1.314-1.315h14.352c0.725,0,1.316,0.593,1.316,1.315v7.022
		c0,0.723-0.592,1.314-1.316,1.314h-14.352c-0.723,0-1.314-0.592-1.314-1.314V466.89z"/>
	<path fill="#F15D22" d="M115.285,467.002c0-0.723,0.592-1.314,1.315-1.314h14.351c0.723,0,1.315,0.592,1.315,1.314v7.022
		c0,0.724-0.592,1.314-1.315,1.314h-14.351c-0.723,0-1.315-0.591-1.315-1.314V467.002z"/>
	<path fill="none" stroke="#E1F4FD" stroke-width="0.928" d="M424.541,274.533v9.545 M363.479,274.533v9.545 M284.921,274.533v9.545
		 M394.91,274.533v9.545 M261.681,274.533v9.545"/>
	<path fill="#7AC143" d="M253.78,178.643c0-0.723,0.592-1.315,1.315-1.315h14.351c0.723,0,1.315,0.592,1.315,1.315v7.021
		c0,0.723-0.592,1.315-1.315,1.315h-14.351c-0.723,0-1.315-0.592-1.315-1.315V178.643z"/>
	<path fill="none" stroke="#E1F4FD" stroke-width="0.928" d="M206.241,307.506h9.811 M223.494,289.84h9.811 M242.003,274.533v9.545
		 M271.327,182.854v13.782 M226.87,186.449v8.737"/>
	<path fill="#F15D22" d="M43.972,466.886c0-0.724,0.592-1.315,1.315-1.315h14.351c0.723,0,1.315,0.592,1.315,1.315v7.021
		c0,0.724-0.592,1.314-1.315,1.314H45.287c-0.723,0-1.315-0.591-1.315-1.314V466.886z"/>
	<path fill="none" stroke="#E1F4FD" stroke-width="0.928" d="M212.573,33.287h8.804 M228.258,49.458h8.804 M246.515,65.336h7.178
		 M259.007,79.321h8.802"/>
	
		<line fill="none" stroke="#7AC143" stroke-width="2.32" stroke-linejoin="round" x1="491.617" y1="314.553" x2="339.932" y2="466.235"/>
	<path fill="#FFFFFF" d="M487.602,316.726h12.582c0.988,0,1.789-0.883,1.789-1.974c0-1.088-0.801-1.971-1.789-1.971h-12.582
		c-0.988,0-1.791,0.883-1.791,1.971C485.811,315.843,486.613,316.726,487.602,316.726"/>
	<path fill="none" stroke="#7AC143" stroke-width="0.6957" d="M487.602,316.726h12.582c0.988,0,1.789-0.883,1.789-1.974
		c0-1.088-0.801-1.971-1.789-1.971h-12.582c-0.988,0-1.791,0.883-1.791,1.971C485.811,315.843,486.613,316.726,487.602,316.726
		L487.602,316.726z"/>
	<path fill="none" stroke="#E1F4FD" stroke-width="0.928" d="M351.352,449.913h9.812 M337.249,465.094h9.812 M366.668,434.56h9.811
		 M380.975,420.098h9.811 M422.207,380.95h9.812 M433.08,368.446h9.811 M395.27,404.409h9.809"/>
	<path fill="#7AC143" d="M487.26,466.926c0-0.723,0.592-1.315,1.316-1.315h14.352c0.723,0,1.314,0.593,1.314,1.315v7.021
		c0,0.724-0.592,1.314-1.314,1.314h-14.352c-0.725,0-1.316-0.591-1.316-1.314V466.926z"/>
	<path fill="#FFFFFF" d="M498.145,204.112H478.84c-2.18,0-3.947,1.767-3.947,3.945c0,2.18,1.768,3.946,3.947,3.946h19.305
		c2.18,0,3.945-1.766,3.945-3.946C502.09,205.879,500.324,204.112,498.145,204.112"/>
	<path fill="none" stroke="#000000" stroke-width="1.392" d="M498.145,204.112H478.84c-2.18,0-3.947,1.767-3.947,3.945
		c0,2.18,1.768,3.946,3.947,3.946h19.305c2.18,0,3.945-1.766,3.945-3.946C502.09,205.879,500.324,204.112,498.145,204.112
		L498.145,204.112z"/>
	<path fill="#FFFFFF" d="M484.252,229.146h14.902c1.09,0,1.973-0.883,1.973-1.974c0-1.088-0.883-1.973-1.973-1.973h-14.902
		c-1.088,0-1.971,0.885-1.971,1.973C482.281,228.262,483.164,229.146,484.252,229.146"/>
	<path fill="none" stroke="#000000" stroke-width="0.6957" d="M484.252,229.146h14.902c1.09,0,1.973-0.883,1.973-1.974
		c0-1.088-0.883-1.973-1.973-1.973h-14.902c-1.088,0-1.971,0.885-1.971,1.973C482.281,228.262,483.164,229.146,484.252,229.146
		L484.252,229.146z"/>
	<path fill="#FFFFFF" d="M484.252,245.165h14.902c1.09,0,1.973-0.885,1.973-1.976c0-1.088-0.883-1.972-1.973-1.972h-14.902
		c-1.088,0-1.971,0.884-1.971,1.972C482.281,244.28,483.164,245.165,484.252,245.165"/>
	<path fill="none" stroke="#000000" stroke-width="0.6957" d="M484.252,245.165h14.902c1.09,0,1.973-0.885,1.973-1.976
		c0-1.088-0.883-1.972-1.973-1.972h-14.902c-1.088,0-1.971,0.884-1.971,1.972C482.281,244.28,483.164,245.165,484.252,245.165
		L484.252,245.165z"/>
	<path fill="#FFFFFF" d="M309.687,283.433v-6.002c0-1.09-0.884-1.971-1.974-1.971c-1.088,0-1.972,0.881-1.972,1.971v6.002
		c0,1.09,0.884,1.974,1.972,1.974C308.803,285.406,309.687,284.522,309.687,283.433"/>
	<path fill="none" stroke="#F15D22" stroke-width="0.6957" d="M309.687,283.433v-6.002c0-1.09-0.884-1.971-1.974-1.971
		c-1.088,0-1.973,0.881-1.973,1.971v6.002c0,1.09,0.884,1.974,1.973,1.974C308.803,285.406,309.687,284.522,309.687,283.433
		L309.687,283.433z"/>
	<path fill="none" stroke="#E1F4FD" stroke-width="0.928" d="M490.76,356.139h9.812 M443.912,356.139h9.811 M458.631,341.812h9.811"
		/>
	<rect x="486.627" y="464.682" fill="#E1F4FD" width="14.877" height="0.929"/>
	<path fill="#00AEEF" d="M503.426,188.084v2.848c0,0.243,0.197,0.441,0.439,0.441h2.848h2.848c0.242,0,0.439-0.198,0.439-0.441
		v-2.848v-2.85c0-0.241-0.197-0.439-0.439-0.439h-2.848h-2.848c-0.242,0-0.439,0.198-0.439,0.439V188.084z"/>
	<path fill="#FFFFFF" d="M509.359,189.4v-0.438l-2.303-1.207v-1.837v-0.014c0-0.37-0.145-0.67-0.328-0.67
		c-0.182,0-0.33,0.3-0.33,0.67v0.016v1.834l-2.299,1.206v0.439l2.299-0.508v1.482l-0.547,0.341v0.219l0.758-0.212
		c0.025,0.084,0.07,0.164,0.121,0.164s0.096-0.08,0.119-0.164l0.754,0.212l0.004-0.219l-0.551-0.341v-1.482L509.359,189.4z"/>
	<path fill="#00AEEF" d="M518.344,188.083v2.849c0,0.243,0.197,0.44,0.441,0.44h2.846h2.848c0.244,0,0.439-0.197,0.439-0.44v-2.849
		v-2.847c0-0.243-0.195-0.44-0.439-0.44h-2.848h-2.846c-0.244,0-0.441,0.198-0.441,0.44V188.083z"/>
	<polygon fill="#FFFFFF" points="522.289,190.292 522.289,186.894 520.096,186.894 520.096,187.333 520.975,187.333 
		520.975,190.292 520.096,190.292 520.096,190.731 523.166,190.731 523.166,190.292 	"/>
	<path fill="#FFFFFF" d="M522.283,185.959c0,0.395-0.318,0.715-0.713,0.715s-0.715-0.32-0.715-0.715c0-0.396,0.32-0.715,0.715-0.715
		S522.283,185.563,522.283,185.959"/>
	<path fill="#00AEEF" d="M368.002,202.302v2.849c0,0.242,0.199,0.44,0.441,0.44h2.848h2.848c0.242,0,0.439-0.198,0.439-0.44v-2.849
		v-2.848c0-0.242-0.197-0.439-0.439-0.439h-2.848h-2.848c-0.242,0-0.441,0.198-0.441,0.439V202.302z"/>
	<polygon fill="#FFFFFF" points="371.949,204.511 371.949,201.113 369.756,201.113 369.756,201.551 370.633,201.551 
		370.633,204.511 369.756,204.511 369.756,204.95 372.824,204.95 372.824,204.511 	"/>
	<path fill="#FFFFFF" d="M371.943,200.177c0,0.395-0.318,0.715-0.715,0.715c-0.395,0-0.715-0.32-0.715-0.715s0.32-0.713,0.715-0.713
		C371.625,199.464,371.943,199.782,371.943,200.177"/>
	<path fill="#00AEEF" d="M531.824,243.541v2.849c0,0.242,0.199,0.441,0.441,0.441h2.848h2.848c0.242,0,0.439-0.199,0.439-0.441
		v-2.849v-2.849c0-0.242-0.197-0.439-0.439-0.439h-2.848h-2.848c-0.242,0-0.441,0.197-0.441,0.439V243.541z"/>
	<polygon fill="#FFFFFF" points="535.771,245.749 535.771,242.353 533.578,242.353 533.578,242.79 534.455,242.79 534.455,245.749 
		533.578,245.749 533.578,246.188 536.646,246.188 536.646,245.749 	"/>
	<path fill="#FFFFFF" d="M535.766,241.416c0,0.396-0.32,0.715-0.713,0.715c-0.396,0-0.715-0.319-0.715-0.715
		c0-0.394,0.318-0.715,0.715-0.715C535.445,240.701,535.766,241.022,535.766,241.416"/>
	<path fill="#00AEEF" d="M515.816,117.262v2.848c0,0.243,0.199,0.441,0.441,0.441h2.848h2.848c0.242,0,0.439-0.198,0.439-0.441
		v-2.848v-2.849c0-0.241-0.197-0.439-0.439-0.439h-2.848h-2.848c-0.242,0-0.441,0.198-0.441,0.439V117.262z"/>
	<polygon fill="#FFFFFF" points="519.764,119.471 519.764,116.073 517.57,116.073 517.57,116.512 518.445,116.512 518.445,119.471 
		517.57,119.471 517.57,119.909 520.637,119.909 520.637,119.471 	"/>
	<path fill="#FFFFFF" d="M519.758,115.137c0,0.395-0.32,0.715-0.715,0.715s-0.715-0.32-0.715-0.715c0-0.394,0.32-0.714,0.715-0.714
		S519.758,114.743,519.758,115.137"/>
	<path fill="#00AEEF" d="M539.746,314.022v2.85c0,0.241,0.197,0.439,0.439,0.439h2.848h2.848c0.242,0,0.439-0.198,0.439-0.439v-2.85
		v-2.848c0-0.242-0.197-0.441-0.439-0.441h-2.848h-2.848c-0.242,0-0.439,0.199-0.439,0.441V314.022z"/>
	<polygon fill="#FFFFFF" points="543.691,316.23 543.691,312.833 541.498,312.833 541.498,313.272 542.375,313.272 542.375,316.23 
		541.498,316.23 541.498,316.669 544.566,316.669 544.566,316.23 	"/>
	<path fill="#FFFFFF" d="M543.686,311.897c0,0.395-0.32,0.715-0.715,0.715s-0.715-0.32-0.715-0.715s0.32-0.715,0.715-0.715
		S543.686,311.503,543.686,311.897"/>
	<path fill="#00AEEF" d="M510.914,188.085v2.847c0,0.243,0.197,0.44,0.439,0.44h2.848h2.85c0.24,0,0.438-0.198,0.438-0.44v-2.847
		v-2.849c0-0.243-0.197-0.44-0.438-0.44h-2.85h-2.848c-0.242,0-0.439,0.197-0.439,0.44V188.085z"/>
	<path fill="#FFFFFF" d="M516.965,188.085c0,1.523-1.238,2.762-2.764,2.762c-1.523,0-2.764-1.239-2.764-2.762
		c0-1.526,1.24-2.763,2.764-2.763C515.727,185.322,516.965,186.559,516.965,188.085"/>
	<path fill="#00AEEF" d="M513.988,190.125c-0.811,0-1.143-0.412-1.143-1.146v-0.032h0.691v0.032c0,0.35,0.111,0.548,0.432,0.548
		c0.363,0,0.406-0.271,0.406-0.8v-2.46h0.738v2.471C515.113,189.405,515.094,190.125,513.988,190.125"/>
	<text transform="matrix(1 0 0 1 565.25 204.5479)" fill="#FFFFFF" font-family="'OpenSans'" font-size="7.424">T11</text>
	<text transform="matrix(1 0 0 1 565.25 216.0557)" fill="#FFFFFF" font-family="'OpenSans'" font-size="7.424">T10</text>
	<text transform="matrix(1 0 0 1 503.3828 200.3135)" font-family="'OpenSans'" font-size="7.68">T-Centralen</text>
	<text transform="matrix(1 0 0 1 582.6172 209.5166)" font-family="'OpenSans'" font-size="7.68">Kungsträdgården</text>
	<text transform="matrix(1 0 0 1 503.6875 228.8369)" font-family="'OpenSans'" font-size="5.76">Gamla stan</text>
	<text transform="matrix(0.7071 -0.7071 0.7071 0.7071 363.7383 275.2129)" font-family="'SLGothicText-Bold'" font-size="5.76">Hornstull</text>
	<text transform="matrix(0.7071 -0.7071 0.7071 0.7071 394.9531 274.9121)" font-family="'SLGothicText-Bold'" font-size="5.76">Zink</text>
	<text transform="matrix(0.7071 -0.7071 0.7071 0.7071 402.7832 267.0898)" font-family="'SLGothicText-Bold'" font-size="5.76">ensdamm</text>
	<text transform="matrix(0.7071 -0.7071 0.7071 0.7071 425.2539 275.2109)" font-family="'SLGothicText-Bold'" font-size="5.76">Maria</text>
	<text transform="matrix(0.7071 -0.7071 0.7071 0.7071 435.7148 264.7578)" font-family="'SLGothicText-Bold'" font-size="5.76">torget</text>
	<text transform="matrix(1 0 0 1 238.0396 359.8916)" font-family="'SLGothicText-Bold'" font-size="5.76">T</text>
	<text transform="matrix(1 0 0 1 240.8286 359.8916)" font-family="'SLGothicText-Bold'" font-size="5.76">elefonplan</text>
	<text transform="matrix(1 0 0 1 274.5864 324.1494)" font-family="'SLGothicText-Bold'" font-size="5.76">Midsommarkransen</text>
	<text transform="matrix(1 0 0 1 202.2271 395.7979)" font-family="'SLGothicText-Bold'" font-size="5.76">Hägerstensåsen</text>
	<text transform="matrix(1 0 0 1 166.7583 431.3369)" font-family="'SLGothicText-Bold'" font-size="5.76">V</text>
	<text transform="matrix(1 0 0 1 170.2505 431.3369)" font-family="'SLGothicText-Bold'" font-size="5.76">ästertorp</text>
	<text transform="matrix(1 0 0 1 504.6328 245.7666)" font-family="'OpenSans'" font-size="7.424">Slussen</text>
	<text transform="matrix(1 0 0 1 503.6875 282.3994)" font-family="'OpenSans'" font-size="5.76">Medborgarplatsen</text>
	<text transform="matrix(1 0 0 1 503.6875 297.626)" font-family="'OpenSans'" font-size="5.76">Skanstull</text>
	<text transform="matrix(1 0 0 1 504.875 316.751)" font-family="'OpenSans'" font-size="5.76">Gullmarsplan</text>
	<text transform="matrix(1 0 0 1 506.8047 333.3057)" font-family="'OpenSans'" font-size="5.76">Skärmarbrink</text>
	<text transform="matrix(0.7071 -0.7071 0.7071 0.7071 442.6465 180.2686)" font-family="'OpenSans'" font-size="5.76">Hötorget</text>
	<text transform="matrix(0.7071 -0.7071 0.7071 0.7071 387.1406 181.8354)" font-family="'OpenSans'" font-size="5.76">S:t Eriksplan</text>
	<text transform="matrix(0.7071 -0.7071 0.7071 0.7071 404.7031 181.8286)" font-family="'OpenSans'" font-size="5.76">Odenplan</text>
	<text transform="matrix(1 0 0 1 28.8442 195.6572)" fill="#FFFFFF" font-family="'OpenSans'" font-size="7.424">T19</text>
	<text transform="matrix(1 0 0 1 28.5239 185.0791)" font-family="'OpenSans'" font-size="7.68">Hässelby strand</text>
	<text transform="matrix(0.7071 -0.7071 0.7071 0.7071 225.0645 224.8335)" font-family="'OpenSans'" font-size="5.76">Stora mossen</text>
	<text transform="matrix(0.7071 -0.7071 0.7071 0.7071 186.2388 223.46)" font-family="'OpenSans'" font-size="5.76">Brommaplan</text>
	<text transform="matrix(0.7071 -0.7071 0.7071 0.7071 175.3691 216.1558)" font-family="'OpenSans'" font-size="5.76">Åkeshov</text>
	<text transform="matrix(0.7071 -0.7071 0.7071 0.7071 152.0459 218.8271)" font-family="'OpenSans'" font-size="5.76">Ängbyplan</text>
	<text transform="matrix(0.7071 -0.7071 0.7071 0.7071 130.6733 224.0518)" font-family="'OpenSans'" font-size="5.76">Islandstorget</text>
	<text transform="matrix(0.7071 -0.7071 0.7071 0.7071 116.1904 219.7935)" font-family="'OpenSans'" font-size="5.76">Blackeberg</text>
	<text transform="matrix(0.7071 -0.7071 0.7071 0.7071 104.4229 213.7974)" font-family="'OpenSans'" font-size="5.76">Råcksta</text>
	<text transform="matrix(0.7071 -0.7071 0.7071 0.7071 84.4043 216.0249)" font-family="'OpenSans'" font-size="5.76">Vällingby</text>
	<text transform="matrix(0.7071 -0.7071 0.7071 0.7071 60.0352 223.8467)" font-family="'OpenSans'" font-size="5.76">Johannelund</text>
	<text transform="matrix(0.7071 -0.7071 0.7071 0.7071 39.9473 226.4072)" font-family="'OpenSans'" font-size="5.76">Hässelby gård</text>
	<text transform="matrix(0.7071 -0.7071 0.7071 0.7071 201.2241 226.916)" font-family="'OpenSans'" font-size="5.76">Abrahamsberg</text>
	<text transform="matrix(0.7071 -0.7071 0.7071 0.7071 311.2632 182.21)" font-family="'OpenSans'" font-size="5.76">Thorildsplan</text>
	<text transform="matrix(0.7071 -0.7071 0.7071 0.7071 372.7012 178.3911)" font-family="'OpenSans'" font-size="5.76">Fridhemsplan</text>
	<text transform="matrix(0.7071 -0.7071 0.7071 0.7071 423.8613 180.8828)" font-family="'OpenSans'" font-size="5.76">Rådmansgatan</text>
	<text transform="matrix(1 0 0 1 400.6328 218.29)" font-family="'OpenSans'" font-size="5.76">Rådhuset</text>
	<text transform="matrix(1 0 0 1 233.2974 113.1338)" font-family="'OpenSans'" font-size="5.76">Huvudsta</text>
	<text transform="matrix(1 0 0 1 313.7271 121.79)" font-family="'OpenSans'" font-size="5.76">Västra skogen</text>
	<text transform="matrix(1 0 0 1 338.2817 148.9541)" font-family="'OpenSans'" font-size="5.76">Stadshagen</text>
	<text transform="matrix(1 0 0 1 221.8677 102.4307)" font-family="'SLGothicText-Bold'" font-size="5.76">V</text>
	<text transform="matrix(1 0 0 1 225.2505 102.4307)" font-family="'OpenSans'" font-size="5.76">reten</text>
	<text transform="matrix(1 0 0 1 206.5239 86.001)" font-family="'OpenSans'" font-size="5.76">Sundbybergs centrum</text>
	<text transform="matrix(1 0 0 1 197.2817 76.8838)" font-family="'OpenSans'" font-size="5.76">Duvbo</text>
	<text transform="matrix(1 0 0 1 186.9067 67.2432)" font-family="'OpenSans'" font-size="5.76">Rissne</text>
	<text transform="matrix(1 0 0 1 168.4692 48.8135)" font-family="'OpenSans'" font-size="5.76">Rinkeby</text>
	<text transform="matrix(1 0 0 1 152.4849 32.3057)" font-family="'OpenSans'" font-size="5.76">Tensta</text>
	<text transform="matrix(1 0 0 1 295.4146 105.751)" font-family="'OpenSans'" font-size="5.76">Solna centrum</text>
	<text transform="matrix(1 0 0 1 270.3364 80.7041)" font-family="'OpenSans'" font-size="5.76">Näckrosen</text>
	<text transform="matrix(1 0 0 1 256.8677 66.8213)" font-family="'OpenSans'" font-size="5.76">Hallonbergen</text>
	<text transform="matrix(1 0 0 1 240.6177 50.9072)" font-family="'OpenSans'" font-size="5.76">Kista</text>
	<text transform="matrix(1 0 0 1 224.3286 34.6104)" font-family="'OpenSans'" font-size="5.76">Husby</text>
	<text transform="matrix(1 0 0 1 488.3906 138.4932)" font-family="'OpenSans'" font-size="5.76">Stadion</text>
	<text transform="matrix(1 0 0 1 488.2734 114.3447)"><tspan x="0" y="0" font-family="'OpenSans'" font-size="5.76">Tekniska</tspan><tspan x="0" y="6.912" font-family="'OpenSans'" font-size="5.76">högskolan</tspan></text>
	<text transform="matrix(1 0 0 1 488.1562 96.665)" font-family="'OpenSans'" font-size="5.76">Universitetet</text>
	<text transform="matrix(1 0 0 1 488.1562 80.1182)" font-family="'OpenSans'" font-size="5.76">Bergshamra</text>
	<text transform="matrix(1 0 0 1 487.6953 67.9307)" font-family="'OpenSans'" font-size="5.76">Danderyds sjukhus</text>
	<text transform="matrix(1 0 0 1 255.9067 174.5869)" font-family="'OpenSans'" font-size="7.68">Alvik</text>
	<text transform="matrix(1 0 0 1 197.7427 17.0713)" fill="#FFFFFF" font-family="'OpenSans'" font-size="7.424">T11</text>
	<text transform="matrix(1 0 0 1 214.7036 17.0791)" font-family="'OpenSans'" font-size="7.68">Akalla</text>
	<text transform="matrix(1 0 0 1 128.3833 16.6182)" fill="#FFFFFF" font-family="'OpenSans'" font-size="7.424">T10</text>
	<text transform="matrix(1 0 0 1 145.6802 16.5869)" font-family="'OpenSans'" font-size="7.68">Hjulsta</text>
	<text transform="matrix(1 0 0 1 174.9614 188.5791)" fill="#FFFFFF" font-family="'OpenSans'" font-size="7.424">T17</text>
	<text transform="matrix(1 0 0 1 175.0083 178.3369)" font-family="'OpenSans'" font-size="7.68">Åkeshov</text>
	<text transform="matrix(0.7071 -0.7071 0.7071 0.7071 314.3091 274.5537)" font-family="'SLGothicText-Bold'" font-size="5.76">Liljeholmen</text>
	<text transform="matrix(1 0 0 1 531.4219 358.1338)" font-family="'OpenSans'" font-size="5.76">Hammarbyhöjden</text>
	<text transform="matrix(1 0 0 1 556.7344 382.3994)" font-family="'OpenSans'" font-size="5.76">Björkhagen</text>
	<text transform="matrix(1 0 0 1 612.4844 438.9854)" font-family="'OpenSans'" font-size="5.76">Bagarmossen</text>
	<text transform="matrix(1 0 0 1 585.7031 412.1182)" font-family="'OpenSans'" font-size="5.76">Kärrtorp</text>
	<text transform="matrix(1 0 0 1 484.9531 49.751)" fill="#FFFFFF" font-family="'OpenSans'" font-size="7.424">T14</text>
	<text transform="matrix(1 0 0 1 502.3359 49.7979)" font-family="'OpenSans'" font-size="7.68">Mörby centrum</text>
	<text transform="matrix(1 0 0 1 541.7266 106.5791)" fill="#FFFFFF" font-family="'OpenSans'" font-size="7.424">T13</text>
	<text transform="matrix(1 0 0 1 558.5703 105.5088)" font-family="'OpenSans'" font-size="7.68">Ropsten</text>
	<text transform="matrix(1 0 0 1 93.1489 433.3604)" font-family="'SLGothicText-Bold'" font-size="5.76">Alby</text>
	<text transform="matrix(1 0 0 1 75.1567 451.2275)" font-family="'SLGothicText-Bold'" font-size="5.76">Hallunda</text>
	<text transform="matrix(1 0 0 1 234.5239 292.1885)" font-family="'SLGothicText-Bold'" font-size="5.76">Mälarhöjden</text>
	<text transform="matrix(1 0 0 1 217.9692 309.4619)" font-family="'SLGothicText-Bold'" font-size="5.76">Bredäng</text>
	<text transform="matrix(1 0 0 1 199.8442 327.04)" font-family="'SLGothicText-Bold'" font-size="5.76">Sä</text>
	<text transform="matrix(1 0 0 1 206.0396 327.04)" font-family="'SLGothicText-Bold'" font-size="5.76">tra</text>
	<text transform="matrix(1 0 0 1 182.5317 344.6807)" font-family="'SLGothicText-Bold'" font-size="5.76">Skärholmen</text>
	<text transform="matrix(1 0 0 1 164.3599 362.3213)" font-family="'SLGothicText-Bold'" font-size="5.76">V</text>
	<text transform="matrix(1 0 0 1 167.8521 362.3213)" font-family="'SLGothicText-Bold'" font-size="5.76">årberg</text>
	<text transform="matrix(1 0 0 1 146.2896 379.9541)" font-family="'SLGothicText-Bold'" font-size="5.76">V</text>
	<text transform="matrix(1 0 0 1 149.7896 379.9541)" font-family="'SLGothicText-Bold'" font-size="5.76">årby </text>
	<text transform="matrix(1 0 0 1 162.188 379.9541)" font-family="'SLGothicText-Bold'" font-size="5.76">gård</text>
	<text transform="matrix(1 0 0 1 129.4224 397.9697)" font-family="'SLGothicText-Bold'" font-size="5.76">Masmo</text>
	<text transform="matrix(1 0 0 1 110.8755 415.6104)" font-family="'SLGothicText-Bold'" font-size="5.76">Fittja</text>
	<text transform="matrix(1 0 0 1 333.813 473.1182)" fill="#FFFFFF" font-family="'OpenSans'" font-size="7.424">T19</text>
	<text transform="matrix(1 0 0 1 351.8052 473.3057)" font-family="'OpenSans'" font-size="7.68">Hagsätra</text>
	<text transform="matrix(1 0 0 1 627.7656 473.1416)" fill="#FFFFFF" font-family="'OpenSans'" font-size="7.424">T17</text>
	<text transform="matrix(1 0 0 1 645.9688 473.2041)" font-family="'OpenSans'" font-size="7.68">Skarpnäck</text>
	<text transform="matrix(1 0 0 1 117.1489 473.2588)" fill="#FFFFFF" font-family="'SLGothicTimetable-Bold'" font-size="7.424">T14</text>
	<text transform="matrix(1 0 0 1 135.1958 473.2744)" font-family="'SLGothicText-Bold'" font-size="7.68">Fruängen</text>
	<text transform="matrix(1 0 0 1 255.8833 184.8916)" fill="#FFFFFF" font-family="'OpenSans'" font-size="7.424">T18</text>
	<text transform="matrix(1 0 0 1 455.6641 358.3682)" font-family="'OpenSans'" font-size="5.76">Enskede gård</text>
	<text transform="matrix(1 0 0 1 442.7422 371.1025)" font-family="'OpenSans'" font-size="5.76">Sockenplan</text>
	<text transform="matrix(1 0 0 1 376.8359 436.5869)" font-family="'OpenSans'" font-size="5.76">Högdalen</text>
	<text transform="matrix(1 0 0 1 363.7188 452.5947)" font-family="'OpenSans'" font-size="5.76">Rågsved</text>
	<text transform="matrix(1 0 0 1 470.4141 344.2119)" font-family="'OpenSans'" font-size="5.76">Globen</text>
	<text transform="matrix(1 0 0 1 406.4297 407.3213)" font-family="'OpenSans'" font-size="5.76">Stureby</text>
	<text transform="matrix(1 0 0 1 391.3906 422.6416)" font-family="'OpenSans'" font-size="5.76">Bandhagen</text>
	<text transform="matrix(0.7071 -0.7071 0.7071 0.7071 295.3706 182.2988)" font-family="'OpenSans'" font-size="5.76">Kristineberg</text>
	<text transform="matrix(0.7071 -0.7071 0.7071 0.7071 263.8086 275.2363)" font-family="'SLGothicText-Bold'" font-size="5.76">Örnsberg</text>
	<text transform="matrix(0.7071 -0.7071 0.7071 0.7071 244.1357 275.2275)" font-family="'SLGothicText-Bold'" font-size="5.76">Ax</text>
	<text transform="matrix(0.7071 -0.7071 0.7071 0.7071 248.5933 270.7734)" font-family="'SLGothicText-Bold'" font-size="5.76">elsberg</text>
	<text transform="matrix(0.7071 -0.7071 0.7071 0.7071 285.1699 274.835)" font-family="'SLGothicText-Bold'" font-size="5.76">Aspudden</text>
	<text transform="matrix(1 0 0 1 46.1099 473.1338)" fill="#FFFFFF" font-family="'SLGothicTimetable-Bold'" font-size="7.424">T13</text>
	<text transform="matrix(1 0 0 1 495.7578 171.1807)" font-family="'OpenSans'" font-size="5.76">Östermalmstorg</text>
	<text transform="matrix(1 0 0 1 533.6016 130.8213)" font-family="'OpenSans'" font-size="5.76">Gärdet</text>
	<text transform="matrix(1 0 0 1 514.1016 151.0479)" font-family="'OpenSans'" font-size="5.76">Karlaplan</text>
	<text transform="matrix(1 0 0 1 507.1172 473.0322)" font-family="'OpenSans'" font-size="7.68">Farsta strand</text>
	<text transform="matrix(1 0 0 1 489.125 473.1807)" fill="#FFFFFF" font-family="'OpenSans'" font-size="7.424">T18</text>
	<text transform="matrix(1 0 0 1 430.3828 383.4854)" font-family="'OpenSans'" font-size="5.76">Svedmyra</text>
	<text transform="matrix(1 0 0 1 499.5938 358.1338)" font-family="'OpenSans'" font-size="5.76">Blåsut</text>
	<text transform="matrix(1 0 0 1 499.5938 373.6182)" font-family="'OpenSans'" font-size="5.76">Sandsborg</text>
	<text transform="matrix(1 0 0 1 499.5938 389.165)" font-family="'OpenSans'" font-size="5.76">Skogskyrkogården</text>
	<text transform="matrix(1 0 0 1 499.5938 404.3135)" font-family="'OpenSans'" font-size="5.76">Tallkrogen</text>
	<text transform="matrix(1 0 0 1 499.5938 420.6025)" font-family="'OpenSans'" font-size="5.76">Gubbängen</text>
	<text transform="matrix(1 0 0 1 499.5938 435.9697)" font-family="'OpenSans'" font-size="5.76">Hökarängen</text>
	<text transform="matrix(1 0 0 1 499.5938 451.665)" font-family="'OpenSans'" font-size="5.76">Farsta</text>
	<text transform="matrix(1 0 0 1 63.8833 473.1494)" font-family="'SLGothicText-Bold'" font-size="7.68">Norsborg</text>
</g>
</svg>
